<svg xmlns="http://www.w3.org/2000/svg" width="1114.7" height="767.4"><path d="M343.4 334.8c0 129.4-76.9 174.5-171.7 174.5S0 464.2 0 334.8 171.7 41 171.7 41s171.7 164.5 171.7 293.8z" fill="#f2f2f2"/><path fill="#3f3d56" d="M165.4 489.5l1.8-108.2 73.2-133.9-73 117 .9-48.7 50.4-96.9-50.2 84 1.4-87.5 54-77.1-53.8 63.3 1-160.5-5.7 212.5.5-8.8-55-84L165 261.5l-5.1 97.8-.2-2.6-63.3-88.5 63.1 97.7-.6 12.2-.1.2v1l-13 248h17.4l2-128.1 63-97.4-62.8 87.7z"/><path d="M1114.7 643.4c0 44.7-230.1 124-514 124s-514-79.3-514-124 230.1-38 514-38 514-6.7 514 38z" fill="#3f3d56"/><path d="M1114.7 643.4c0 44.7-230.1 124-514 124s-514-79.3-514-124 230.1-38 514-38 514-6.7 514 38z" opacity=".1"/><ellipse cx="600.7" cy="643.4" rx="514" ry="81" fill="#3f3d56"/><ellipse cx="619.4" cy="654.9" rx="122" ry="25.5" opacity=".1"/><circle cx="480.4" cy="96.1" r="48.6" fill="#2f2e41"/><circle cx="386.6" cy="83" r="15.5" fill="#2f2e41" opacity=".3"/><circle cx="408.6" cy="49.3" r="15.5" fill="#2f2e41" opacity=".5"/><circle cx="430.5" cy="15.5" r="15.5" fill="#2f2e41"/><circle cx="430.5" cy="15.5" r="15.5" fill="#fff" opacity=".3"/><circle cx="479.2" cy="329.5" r="48.6" fill="#9f7aea"/><circle cx="443.2" cy="417.2" r="15.5" fill="#9f7aea" opacity=".3"/><circle cx="416" cy="387.5" r="15.5" fill="#9f7aea" opacity=".5"/><circle cx="388.8" cy="357.8" r="15.5" fill="#9f7aea"/><circle cx="388.8" cy="357.8" r="15.5" fill="#fff" opacity=".3"/><path d="M557.5 595.2s-.3 17.4-1.8 22 0 10.3 0 10.3l-5.6 14.8h20s4.7-21.6 4.7-23.5-2.8-18.2-2.8-18.2z" fill="#ffb9b9"/><path d="M572.9 641.1s-5-13.7-26.4 0c0 0-8.4 12.5-3.7 16.3s13 9 19.7 6.1 9.5-6.2 10.4-12.3a30.5 30.5 0 000-10z" fill="#2f2e41"/><path d="M665.3 595.2s.3 17.4 1.8 22 0 10.3 0 10.3l5.6 14.8h-20s-4.7-21.6-4.7-23.5 2.8-18.2 2.8-18.2z" fill="#ffb9b9"/><path d="M650 641.1s5-13.7 26.3 0c0 0 8.4 12.5 3.7 16.3s-12.9 9-19.7 6.1-9.5-6.2-10.4-12.3a30.5 30.5 0 010-10z" fill="#2f2e41"/><path d="M552.5 268.8s14.5 20 16.2 26.3 13 5.8 12.2 0-20.2-36.7-20.2-36.7zM669.8 262.2s-20.5 34.7-15.3 38.6 24.9-30.3 24.9-30.3z" fill="#ffb9b9"/><path d="M650.7 289.3h-33.8c-6.2 0-26.7 1.7-30 0s-15.3-1.4-15.3-1.4-24.8 56.6-18.1 101.7-14 201.5-4.3 206.2 18.5 10.7 27 11 24.1-3.4 25.9-6 10.5-222 10.5-222 3.1 216.6 8.9 221.5 22.3 8.1 32.7 6.5 21-7.4 23.1-11.3-7.2-112.6-7.2-112.6 14.3-166.9-9.4-187.8z" fill="#2f2e41"/><path d="M601 117.4s7.4 24.3-7.2 31.2 12.6 63.7 12.6 63.7 38-48.7 38-59.4l-6.3-6.3s-12.5-21-8.6-27.5-28.5-1.7-28.5-1.7z" fill="#ffb9b9"/><path d="M601 117.4s7.4 24.3-7.2 31.2 12.6 63.7 12.6 63.7 38-48.7 38-59.4l-6.3-6.3s-12.5-21-8.6-27.5-28.5-1.7-28.5-1.7z" opacity=".1"/><path d="M611.8 200.2s-8.8-23.3-7.8-32-1.4-23-5.2-23.5-43 12.4-47 15-7.5 57-7.5 57l17.5 40.2s1.5 33 9.8 34.5 86.6 5.6 89.1 2.8 28.3-79.7 28.3-79.7l5.8-45s-7.3-9-15-11.1-32.5-11-35.4-11.3-11.7 1.4-12.4 4-20.2 49-20.2 49z" fill="#d0cde1"/><circle cx="617" cy="102.5" r="30.4" fill="#ffb9b9"/><path d="M627.4 46.3a17 17 0 00-23.8-1.5c-1.8 1.7-3.1 3.7-5 5.2a23.4 23.4 0 01-5.8 3.4c-7 3-14.3 5.2-20.8 9.2s-12.2 10.1-13 17.7c-.4 4 .6 8-.2 12-1.1 6.1-6 10.7-10.2 15.5-4 4.4-7.5 10.8-4.7 16 2.4 4.6 8.3 5.9 11.6 9.7 3.8 4.5 3.3 11.2 1.4 16.8s-5 10.7-5.7 16.5c-1.3 9.6 4 19 10.8 25.8 3.1 3 6.7 5.9 11 7.2a19 19 0 0018.3-4.7A21 21 0 00597 177c-.6-3.6-2-7.1-1.7-10.7.8-7.5 9-12.1 10.8-19.4 2-7.4-3-14.6-5.9-21.6-3.7-9-4.2-18.8-4.3-28.4 0-5.6.6-12 5.2-15 3-2 7-1.7 10.5-2 4.2-.3 8.4-1.3 12.5-1s8.7 2.8 9.8 6.8c1.3 4.5-2 9.1-2 13.8 0 2.3.9 4.6 1 6.9 0 6.7-6.3 11.5-9.7 17.2a23.4 23.4 0 002 26.4c3.5 4.3 8.9 7.7 9.5 13.2.3 3.1-1 6.1-1.8 9.1s-.9 6.6 1.3 8.8c1.5 1.5 3.7 2 5.8 2.2a45 45 0 0016-.7 7.7 7.7 0 003.7-1.7c2.7-2.5 1-7 2.2-10.5 1.2-3.3 4.9-5 8.3-6s7.2-1.4 10-3.5c3.1-2.5 4.5-6.7 4.3-10.6s-1.7-7.8-3.4-11.3a3.7 3.7 0 01-.6-2.2c.3-2 3.2-1.8 5.3-1.9 5.5 0 9.6-5.6 9.8-11s-2.8-10.6-6.2-14.8-7.6-8-10.7-12.4c-5.2-7.8-7-17.7-13.3-24.5a24 24 0 00-11.4-6.8c-3.3-1-8.3.2-11-2.2-1-1-1.4-2.4-2.4-3.4-1.6-1.6-3.8-2-5.7-3.4-3.5-2.5-5-6.8-7.6-10z" fill="#2f2e41"/><path d="M557.5 161l-5.6-1.3s-70 55.3-73.4 62.4-12.6 13.5 6.8 25 67.3 30.2 67.3 30.2l11.1-19.7-54.4-28S522 212 548.2 216zM690 167.3l4.8 2.2s73.6 53.2 64.9 66.5-79.9 45-79.9 45l-12.6-19.8 2.7-1.3c10.6-5 49.3-23.7 47-25.2-2.7-1.8-25-21.6-31.3-22.4s4.3-45 4.3-45z" fill="#d0cde1"/><circle cx="759.5" cy="342.1" r="48.6" fill="#ff6584"/><circle cx="795.4" cy="429.8" r="15.5" fill="#ff6584"/><circle cx="795.4" cy="429.8" r="15.5" fill="#fff" opacity=".3"/><circle cx="822.7" cy="400.1" r="15.5" fill="#ff6584" opacity=".5"/><circle cx="849.9" cy="370.4" r="15.5" fill="#ff6584" opacity=".3"/><path d="M1053.4 556.9c0 59.8-35.5 80.7-79.4 80.7a143 143 0 01-9-.4c-39.7-2.7-70.4-24.7-70.4-80.3 0-57.6 73.6-130.3 79-135.6l.4-.3s79.4 76 79.4 135.9z" fill="#9f7aea"/><path d="M971.1 628.4l29-40.6-29 45-.1 4.7-6-.3 3-59.8v-.5l.4-5.7-29.2-45.1 29.3 40.9v1.2L971 523l-25-46.7 25.3 38.7 2.5-93.7v-.3.3l-.4 74 24.8-29.4-25 35.7-.6 40.5 23.2-38.9-23.3 44.8-.4 22.5 33.8-54-33.9 61.9z" fill="#3f3d56"/><path d="M227.4 637.6c0 29-17.2 39-38.4 39a69.2 69.2 0 01-4.4-.1c-19.1-1.4-34-12-34-38.9 0-27.8 35.6-63 38.2-65.5l.2-.2s38.4 36.8 38.4 65.7z" fill="#9f7aea"/><path d="M187.6 672.2l14-19.6-14 21.8v2.2l-3-.1 1.5-29v-.2l.2-2.7-14.1-21.9 14.1 19.8v.6l1.2-21.9-12-22.5 12.1 18.7 1.2-45.3v-.2.2l-.2 35.7 12-14.2-12 17.3-.3 19.6 11.2-18.8-11.3 21.6-.1 11 16.3-26.2-16.4 30z" fill="#3f3d56"/><path d="M894.4 656.6c0 29-17.2 39-38.4 39a69.2 69.2 0 01-4.4-.1c-19.1-1.4-34-12-34-38.9 0-27.8 35.6-63 38.2-65.5l.2-.2s38.4 36.8 38.4 65.7z" fill="#9f7aea"/><path d="M854.6 691.2l14-19.6-14 21.8v2.2l-3-.1 1.5-29v-.2l.2-2.7-14.1-21.9 14.1 19.8v.6l1.2-21.9-12-22.5 12.1 18.7 1.2-45.3v-.2.2l-.2 35.7 12-14.2-12 17.3-.3 19.6 11.2-18.8-11.3 21.6-.1 11 16.3-26.2-16.4 30z" fill="#3f3d56"/></svg>